<svg xmlns="http://www.w3.org/2000/svg" viewBox="0 0 360 320" width="18" height="16">
	<style>
		tspan { white-space:pre }
		.shp0 { fill: #e24329 } 
		.shp1 { fill: #fca326 } 
		.shp2 { fill: #fc6d26 } 
	</style>
	<g id="logo_art">
		<g id="Layer">
			<g id="Layer">
				<path id="path50_5_" class="shp0" d="M180.8 317.97L180.8 317.97L243 126.65L118.69 126.65L180.8 317.97L180.8 317.97Z" />
				<path id="path66_12_" class="shp1" d="M31.57 126.65L31.57 126.65L12.63 184.77C10.92 190.05 12.77 195.88 17.29 199.17L180.8 317.97L31.57 126.65L31.57 126.65Z" />
				<path id="path74_5_" class="shp0" d="M31.57 126.65L118.69 126.65L81.2 11.42C79.28 5.53 70.92 5.53 68.93 11.42L31.57 126.65L31.57 126.65Z" />
				<path id="path82_12_" class="shp1" d="M330.12 126.65L330.12 126.65L348.99 184.77C350.71 190.05 348.86 195.88 344.33 199.17L180.8 317.97L330.12 126.65L330.12 126.65Z" />
				<path id="path86_5_" class="shp0" d="M330.12 126.65L243 126.65L280.43 11.42C282.34 5.53 290.71 5.53 292.7 11.42L330.12 126.65L330.12 126.65Z" />
				<path id="Layer" class="shp2" d="M180.8 317.97L243 126.65L330.12 126.65L180.8 317.97Z" />
				<path id="Layer" class="shp2" d="M180.8 317.97L31.57 126.65L118.69 126.65L180.8 317.97Z" />
			</g>
		</g>
	</g>
</svg>